<?xml version="1.0" standalone="no"?>
<!DOCTYPE svg PUBLIC "-//W3C//DTD SVG 20010904//EN"
 "http://www.w3.org/TR/2001/REC-SVG-20010904/DTD/svg10.dtd">
<svg version="1.0" xmlns="http://www.w3.org/2000/svg"
 width="192.000000pt" height="192.000000pt" viewBox="0 0 192.000000 192.000000"
 preserveAspectRatio="xMidYMid meet">

<g transform="translate(0.000000,192.000000) scale(0.100000,-0.100000)"
fill="#000000" stroke="none">
<path d="M720 1875 c-111 -63 -132 -184 -49 -278 l40 -46 -270 -3 c-256 -3
-271 -4 -298 -24 -25 -19 -28 -28 -31 -87 -3 -63 -2 -67 28 -88 l30 -23 0
-624 c0 -420 3 -630 11 -643 5 -11 21 -24 34 -29 14 -5 338 -10 738 -11 638
-1 718 1 745 15 17 9 36 25 42 35 6 13 10 235 10 645 0 624 0 625 21 636 50
27 61 137 17 177 -18 16 -47 18 -304 23 l-284 5 31 30 c38 35 69 98 69 140 0
46 -34 109 -75 141 -28 21 -51 29 -93 32 -51 3 -63 0 -112 -30 l-55 -34 -48
30 c-67 42 -137 46 -197 11z m130 -14 c0 -5 -7 -12 -16 -15 -24 -9 -28 -7 -14
9 14 17 30 20 30 6z m292 -21 c-47 -29 -92 -51 -92 -46 0 11 104 75 113 69 5
-3 -5 -13 -21 -23z m-244 -11 c-2 -6 -24 -23 -48 -37 l-45 -25 34 36 c33 35
67 50 59 26z m302 3 c0 -5 -12 -14 -27 -21 l-28 -11 24 20 c26 22 31 24 31 12z
m40 -45 c0 -7 -17 -21 -38 -33 -20 -11 -64 -35 -97 -54 -74 -41 -64 -29 40 49
76 57 95 64 95 38z m-296 4 c6 -9 -83 -65 -91 -57 -5 4 68 66 79 66 4 0 9 -4
12 -9z m-239 -66 c-32 -27 -45 -31 -45 -15 0 10 48 39 65 39 6 0 -3 -11 -20
-24z m555 7 c0 -14 -31 -37 -105 -77 -79 -43 -73 -32 18 37 60 45 87 57 87 40z
m-525 -57 c-25 -21 -43 -31 -49 -25 -11 11 -13 9 34 38 52 32 60 26 15 -13z
m50 -31 c-41 -34 -63 -46 -69 -36 -3 5 16 21 42 35 59 33 65 33 27 1z m445 2
c0 -14 -87 -72 -96 -64 -3 3 84 75 94 77 1 1 2 -5 2 -13z m-295 -16 c-3 -5
-14 -10 -23 -10 -15 0 -15 2 -2 10 20 13 33 13 25 0z m-140 -30 c-9 -15 -45
-32 -45 -22 0 5 10 14 23 20 29 14 29 14 22 2z m79 -9 c3 -5 -12 -21 -35 -36
-30 -21 -43 -25 -51 -17 -7 7 -10 13 -7 15 16 13 75 47 81 47 4 0 9 -4 12 -9z
m66 -31 c0 -18 -93 -81 -104 -70 -12 12 -1 25 51 56 43 25 53 28 53 14z m90
-14 c0 -5 -139 -106 -145 -106 -3 0 -5 6 -5 13 0 7 33 32 73 55 76 44 77 44
77 38z m-210 -101 c44 -44 77 -81 75 -84 -3 -2 -164 -4 -357 -4 -351 1 -352 1
-370 23 -32 40 -20 130 19 141 7 2 135 4 284 3 l270 -1 79 -78z m931 56 c23
-28 26 -98 5 -127 -14 -18 -28 -19 -348 -17 -183 1 -349 2 -368 2 l-35 1 80
80 c65 65 85 80 114 82 20 2 148 3 284 3 l249 0 19 -24z m-766 -57 c-44 -37
-68 -49 -63 -32 4 11 75 58 88 57 3 0 -8 -11 -25 -25z m723 -736 c2 -601 2
-618 -17 -637 -28 -28 -76 -34 -206 -26 l-115 7 0 143 c0 107 4 150 15 171 17
34 19 77 5 105 -10 18 -26 19 -420 19 -397 0 -411 -1 -430 -20 -24 -24 -27
-87 -5 -116 11 -14 14 -52 15 -160 l0 -142 -109 -7 c-117 -8 -178 -2 -208 20
-17 13 -18 43 -19 632 0 340 2 621 4 626 2 4 337 6 745 5 l742 -3 3 -617z
m-360 -290 c3 -40 0 -48 -15 -49 -56 -5 -694 -6 -725 -2 l-38 5 0 49 0 49 388
-2 387 -3 3 -47z m-415 -226 l2 -142 -167 0 -168 0 0 138 c0 76 3 142 7 146 4
3 78 5 166 4 l158 -3 2 -143z m387 3 l0 -145 -164 0 c-148 0 -164 2 -167 18
-3 9 -3 74 -1 145 l4 127 164 0 164 0 0 -145z"/>
<path d="M333 1190 c-28 -12 -37 -41 -34 -120 1 -47 6 -68 18 -77 12 -9 61
-13 158 -13 184 0 185 1 185 116 0 82 -1 85 -26 94 -31 12 -271 12 -301 0z
m277 -67 c0 -27 3 -57 5 -68 11 -44 -6 -50 -135 -48 -67 2 -125 5 -129 7 -6 4
-6 59 -2 144 1 9 34 12 131 12 l130 0 0 -47z"/>
<path d="M811 1189 c-26 -10 -35 -42 -32 -119 1 -47 6 -68 18 -77 12 -9 61
-13 158 -13 184 0 185 1 185 115 0 52 -4 86 -11 91 -16 9 -293 12 -318 3z
m280 -26 c6 -72 6 -132 -1 -143 -11 -17 -246 -25 -256 -9 -8 13 -13 130 -7
147 4 9 40 12 134 12 71 0 129 -3 130 -7z"/>
<path d="M1293 1185 l-33 -14 0 -84 c0 -51 5 -88 12 -95 17 -17 284 -16 318 1
23 12 25 18 28 92 1 44 -2 86 -7 94 -14 21 -273 26 -318 6z m278 -47 c3 -60 0
-120 -5 -125 -8 -8 -244 -9 -251 -1 -8 8 -14 127 -7 146 3 9 39 12 133 12
l129 0 1 -32z"/>
<path d="M319 831 c-22 -18 -24 -26 -22 -97 3 -109 2 -109 176 -110 188 -2
187 -2 187 116 0 78 -2 91 -19 100 -11 5 -82 10 -159 10 -123 0 -143 -2 -163
-19z m242 -20 c56 -1 61 -10 52 -91 l-6 -60 -128 0 -128 0 -3 38 c-5 65 3 111
20 114 10 2 46 3 82 2 36 -1 86 -3 111 -3z"/>
<path d="M1282 825 c-25 -22 -27 -29 -27 -100 1 -56 5 -79 15 -85 14 -9 161
-16 258 -13 24 1 54 9 67 17 23 15 25 23 25 95 0 56 -4 82 -14 90 -9 8 -67 13
-155 16 -137 4 -142 3 -169 -20z m289 -27 c0 -13 1 -43 3 -68 5 -76 3 -78
-133 -79 -106 -1 -121 1 -129 16 -7 15 -8 75 -3 138 1 13 23 15 131 15 128 0
130 0 131 -22z"/>
<path d="M795 820 c-24 -27 -23 -159 2 -177 12 -9 61 -13 159 -13 184 0 189 3
185 116 -1 47 -7 81 -14 86 -7 4 -80 8 -163 8 -137 0 -153 -2 -169 -20z m296
-22 c11 -158 19 -148 -127 -148 -91 0 -126 3 -129 13 -8 23 -14 128 -8 142 4
12 30 15 134 15 127 0 129 0 130 -22z"/>
</g>
</svg>
